# Blender 3.5.1
# www.blender.org
mtllib fps_example.mtl
o Cube.004
v 0.465776 0.000000 -6.365711
v 0.465776 1.016000 -6.365711
v 0.465776 0.000000 -7.381711
v 0.465776 1.016000 -7.381711
v 1.481776 0.000000 -6.365711
v 1.481776 1.016000 -6.365711
v 1.481776 0.000000 -7.381711
v 1.481776 1.016000 -7.381711
v -15.240000 0.000000 15.239998
v 15.239999 0.000000 15.239998
v -15.240000 0.000000 -15.240000
v 15.239999 0.000000 -15.240000
v -15.240000 9.144000 -15.240000
v -15.240000 9.144000 15.239998
v 15.239999 9.144000 15.239998
v 15.239999 9.144000 -15.240000
v -8.940125 0.000000 12.434069
v -8.940125 7.637458 12.434069
v -11.233312 0.000000 10.426184
v -11.233312 7.637458 10.426184
v -0.908590 0.000000 3.261322
v -3.201777 0.000000 1.253438
v -11.782894 0.000000 -8.418424
v -11.782894 0.609600 -8.418424
v -9.951670 0.000000 -10.855003
v -9.951670 0.609600 -10.855003
v -2.036577 0.000000 -1.093525
v -0.205352 0.000000 -3.530104
v 10.687332 0.000000 -12.357756
v 10.687332 1.964405 -12.357756
v 12.987844 0.000000 -10.358268
v 12.987844 1.964405 -10.358268
v 2.689381 0.000000 -3.155711
v 4.989893 0.000000 -1.156223
v 11.994971 0.000000 9.745619
v 11.994971 4.655050 9.745619
v 10.007894 0.000000 12.056858
v 10.007894 4.655050 12.056858
v 2.750017 0.000000 1.797306
v 0.762939 0.000000 4.108545
v 0.465776 0.989856 -7.424627
v 0.465776 2.005857 -7.424627
v 0.465776 0.989856 -8.440627
v 0.465776 2.005857 -8.440627
v 1.481776 0.989856 -7.424627
v 1.481776 2.005857 -7.424627
v 1.481776 0.989856 -8.440627
v 1.481776 2.005857 -8.440627
v 0.465776 1.956693 -8.483543
v 0.465776 2.972693 -8.483543
v 0.465776 1.956693 -9.499544
v 0.465776 2.972693 -9.499544
v 1.481776 1.956693 -8.483543
v 1.481776 2.972693 -8.483543
v 1.481776 1.956693 -9.499544
v 1.481776 2.972693 -9.499544
vn -1.0000 -0.0000 -0.0000
vn -0.0000 -0.0000 -1.0000
vn 1.0000 -0.0000 -0.0000
vn -0.0000 -0.0000 1.0000
vn -0.0000 -1.0000 -0.0000
vn -0.0000 1.0000 -0.0000
vn -0.6588 -0.0000 0.7524
vn -0.7524 -0.0000 -0.6588
vn 0.7524 -0.0000 0.6588
vn 0.3497 0.8475 -0.3994
vn -0.7994 -0.0000 -0.6008
vn 0.6008 -0.0000 -0.7994
vn -0.6008 -0.0000 0.7994
vn 0.0399 0.9988 0.0300
vn 0.6560 -0.0000 -0.7548
vn 0.7548 -0.0000 0.6560
vn -0.7548 -0.0000 -0.6560
vn -0.1044 0.9873 0.1201
vn 0.7583 -0.0000 0.6519
vn -0.6519 -0.0000 0.7583
vn 0.6519 -0.0000 -0.7583
vn -0.2705 0.9342 -0.2325
vt 0.928598 0.174583
vt 0.928598 0.174583
vt 0.928598 0.174583
vt 0.928598 0.174583
vt 0.928598 0.174583
vt 0.928598 0.174583
vt 0.928598 0.174583
vt 0.928598 0.174583
vt 0.670089 0.421255
vt 0.170846 0.421255
vt 0.925223 0.925223
vt 0.673239 0.920499
vt 0.670089 0.421255
vt 0.170846 0.421255
vt 0.925223 0.925223
vt 0.670089 0.421255
vt 0.170846 0.918924
vt 0.170846 0.918924
vt 0.670089 0.421255
vt 0.673239 0.920499
vt 0.925223 0.925223
vt 0.170846 0.918924
vt 0.925223 0.925223
vt 0.170846 0.421255
vt 0.673239 0.920499
vt 0.170846 0.421255
vt 0.673239 0.920499
vt 0.170846 0.918924
vt 0.923648 0.673239
vt 0.923648 0.673239
vt 0.923648 0.673239
vt 0.923648 0.673239
vt 0.923648 0.673239
vt 0.923648 0.673239
vt 0.172421 0.676389
vt 0.172421 0.676389
vt 0.172421 0.676389
vt 0.172421 0.676389
vt 0.172421 0.676389
vt 0.172421 0.676389
vt 0.173996 0.170846
vt 0.173996 0.170846
vt 0.173996 0.170846
vt 0.173996 0.170846
vt 0.173996 0.170846
vt 0.173996 0.170846
vt 0.419680 0.166121
vt 0.419680 0.166121
vt 0.419680 0.166121
vt 0.419680 0.166121
vt 0.419680 0.166121
vt 0.419680 0.166121
vt 0.920661 0.428567
vt 0.920661 0.428567
vt 0.920661 0.428567
vt 0.920661 0.428567
vt 0.920661 0.428567
vt 0.920661 0.428567
vt 0.920661 0.428567
vt 0.920661 0.428567
vt 0.424598 0.674614
vt 0.424598 0.674614
vt 0.424598 0.674614
vt 0.424598 0.674614
vt 0.424598 0.674614
vt 0.424598 0.674614
vt 0.424598 0.674614
vt 0.424598 0.674614
s 0
usemtl opaque_high
f 2/2/1 3/3/1 1/1/1
f 4/4/2 7/7/2 3/3/2
f 8/8/3 5/5/3 7/7/3
f 6/6/4 1/1/4 5/5/4
f 7/7/5 1/1/5 3/3/5
f 4/4/6 6/6/6 8/8/6
f 10/13/6 11/16/6 9/9/6
f 15/25/1 12/20/1 10/12/1
f 13/21/3 9/11/3 11/15/3
f 16/28/4 11/17/4 12/18/4
f 14/24/2 10/14/2 9/10/2
f 18/30/7 19/31/7 17/29/7
f 19/31/8 20/32/8 22/34/8
f 21/33/9 18/30/9 17/29/9
f 19/31/5 21/33/5 17/29/5
f 20/32/10 21/33/10 22/34/10
f 24/36/11 25/37/11 23/35/11
f 25/37/12 26/38/12 28/40/12
f 27/39/13 24/36/13 23/35/13
f 28/40/5 23/35/5 25/37/5
f 26/38/14 27/39/14 28/40/14
f 30/42/15 31/43/15 29/41/15
f 31/43/16 32/44/16 34/46/16
f 33/45/17 30/42/17 29/41/17
f 34/46/5 29/41/5 31/43/5
f 34/46/18 30/42/18 33/45/18
f 36/48/19 37/49/19 35/47/19
f 37/49/20 38/50/20 40/52/20
f 39/51/21 36/48/21 35/47/21
f 40/52/5 35/47/5 37/49/5
f 40/52/22 36/48/22 39/51/22
f 42/54/1 43/55/1 41/53/1
f 44/56/2 47/59/2 43/55/2
f 48/60/3 45/57/3 47/59/3
f 46/58/4 41/53/4 45/57/4
f 47/59/5 41/53/5 43/55/5
f 44/56/6 46/58/6 48/60/6
f 50/62/1 51/63/1 49/61/1
f 52/64/2 55/67/2 51/63/2
f 56/68/3 53/65/3 55/67/3
f 54/66/4 49/61/4 53/65/4
f 55/67/5 49/61/5 51/63/5
f 52/64/6 54/66/6 56/68/6
f 2/2/1 4/4/1 3/3/1
f 4/4/2 8/8/2 7/7/2
f 8/8/3 6/6/3 5/5/3
f 6/6/4 2/2/4 1/1/4
f 7/7/5 5/5/5 1/1/5
f 4/4/6 2/2/6 6/6/6
f 10/13/6 12/19/6 11/16/6
f 15/25/1 16/27/1 12/20/1
f 13/21/3 14/23/3 9/11/3
f 16/28/4 13/22/4 11/17/4
f 14/24/2 15/26/2 10/14/2
f 18/30/7 20/32/7 19/31/7
f 19/31/5 22/34/5 21/33/5
f 20/32/10 18/30/10 21/33/10
f 24/36/11 26/38/11 25/37/11
f 28/40/5 27/39/5 23/35/5
f 26/38/14 24/36/14 27/39/14
f 30/42/15 32/44/15 31/43/15
f 34/46/5 33/45/5 29/41/5
f 34/46/18 32/44/18 30/42/18
f 36/48/19 38/50/19 37/49/19
f 40/52/5 39/51/5 35/47/5
f 40/52/22 38/50/22 36/48/22
f 42/54/1 44/56/1 43/55/1
f 44/56/2 48/60/2 47/59/2
f 48/60/3 46/58/3 45/57/3
f 46/58/4 42/54/4 41/53/4
f 47/59/5 45/57/5 41/53/5
f 44/56/6 42/54/6 46/58/6
f 50/62/1 52/64/1 51/63/1
f 52/64/2 56/68/2 55/67/2
f 56/68/3 54/66/3 53/65/3
f 54/66/4 50/62/4 49/61/4
f 55/67/5 53/65/5 49/61/5
f 52/64/6 50/62/6 54/66/6
